<svg width="30" height="30" viewBox="0 0 30 30" fill="none" xmlns="http://www.w3.org/2000/svg">
<g clip-path="url(#clip0_2_33)">
<path d="M15.5614 29.8015C10.4359 29.8015 5.44506 27.1438 2.70333 22.395C0.724258 18.967 0.198371 14.9736 1.22281 11.1502C2.24726 7.3267 4.6992 4.13121 8.12718 2.15213C10.9605 0.516186 14.1708 -0.128577 17.4137 0.287983C17.6896 0.323547 17.9136 0.52837 17.9728 0.80004C18.0328 1.07171 17.9149 1.35161 17.6791 1.49947C12.8154 4.54645 11.2542 10.8281 14.1247 15.8005C16.9958 20.7729 23.2162 22.5616 28.2871 19.8729C28.5317 19.7419 28.8334 19.7807 29.0392 19.9681C29.2447 20.1555 29.3102 20.4521 29.2032 20.7087C27.9423 23.7247 25.7785 26.1836 22.9452 27.8192C20.6184 29.1627 18.0736 29.8015 15.5614 29.8015ZM15.4896 1.48234C13.1424 1.48432 10.8538 2.09879 8.78578 3.29282C2.33847 7.01519 0.121644 15.2891 3.84402 21.7364C7.56639 28.1837 15.8396 30.4005 22.2873 26.6782C24.3553 25.4845 26.0317 23.8093 27.2073 21.7776C21.878 23.6332 15.8973 21.5043 12.9843 16.4591C10.0717 11.4139 11.2176 5.16981 15.4896 1.48234Z" fill="black"/>
</g>
<defs>
<clipPath id="clip0_2_33">
<rect width="30" height="30" fill="white"/>
</clipPath>
</defs>
</svg>
