<svg width="188" height="21" viewBox="0 0 188 21" fill="none" xmlns="http://www.w3.org/2000/svg">
<path d="M14.225 2.3C14.1583 3.03333 14.1083 3.74167 14.075 4.425C14.0583 5.10833 14.05 5.63333 14.05 6C14.05 6.33333 14.0583 6.65 14.075 6.95C14.0917 7.25 14.1083 7.5 14.125 7.7H13.55C13.3833 6.48333 13.125 5.525 12.775 4.825C12.425 4.10833 11.9667 3.60833 11.4 3.325C10.85 3.025 10.2 2.875 9.45 2.875H8.425C7.94167 2.875 7.575 2.91667 7.325 3C7.075 3.08333 6.90833 3.25 6.825 3.5C6.74167 3.75 6.7 4.13333 6.7 4.65V17.65C6.7 18.1667 6.74167 18.55 6.825 18.8C6.90833 19.05 7.075 19.2167 7.325 19.3C7.575 19.3833 7.94167 19.425 8.425 19.425H9.65C10.4 19.425 11.0583 19.2667 11.625 18.95C12.2083 18.6167 12.7 18.0583 13.1 17.275C13.5167 16.4917 13.8333 15.4333 14.05 14.1H14.625C14.575 14.6333 14.55 15.3333 14.55 16.2C14.55 16.5833 14.5583 17.125 14.575 17.825C14.5917 18.525 14.6417 19.25 14.725 20C13.875 19.9667 12.9167 19.95 11.85 19.95C10.7833 19.9333 9.83333 19.925 9 19.925C8.58333 19.925 8.05 19.925 7.4 19.925C6.75 19.925 6.05 19.9333 5.3 19.95C4.55 19.95 3.79167 19.9583 3.025 19.975C2.25833 19.975 1.53333 19.9833 0.85 20V19.5C1.38333 19.4667 1.78333 19.4 2.05 19.3C2.31667 19.2 2.49167 19 2.575 18.7C2.675 18.4 2.725 17.95 2.725 17.35V4.95C2.725 4.33333 2.675 3.88333 2.575 3.6C2.49167 3.3 2.30833 3.1 2.025 3C1.75833 2.88333 1.36667 2.81667 0.85 2.8V2.3C1.53333 2.31667 2.25833 2.33333 3.025 2.35C3.79167 2.35 4.55 2.35833 5.3 2.375C6.05 2.375 6.75 2.375 7.4 2.375C8.05 2.375 8.58333 2.375 9 2.375C9.76667 2.375 10.6333 2.375 11.6 2.375C12.5833 2.35833 13.4583 2.33333 14.225 2.3ZM10.325 10.85C10.325 10.85 10.325 10.9333 10.325 11.1C10.325 11.2667 10.325 11.35 10.325 11.35H5.95C5.95 11.35 5.95 11.2667 5.95 11.1C5.95 10.9333 5.95 10.85 5.95 10.85H10.325ZM11.05 7.55C10.9833 8.5 10.95 9.225 10.95 9.725C10.9667 10.225 10.975 10.6833 10.975 11.1C10.975 11.5167 10.9833 11.975 11 12.475C11.0167 12.975 11.0583 13.7 11.125 14.65H10.55C10.4667 14.0667 10.3083 13.525 10.075 13.025C9.85833 12.525 9.54167 12.125 9.125 11.825C8.70833 11.5083 8.16667 11.35 7.5 11.35V10.85C8 10.85 8.425 10.75 8.775 10.55C9.125 10.3333 9.40833 10.0583 9.625 9.725C9.85833 9.375 10.0417 9.00833 10.175 8.625C10.3083 8.24167 10.4083 7.88333 10.475 7.55H11.05ZM21.5447 0.424999V17.675C21.5447 18.375 21.6614 18.85 21.8947 19.1C22.1447 19.35 22.5614 19.475 23.1447 19.475V20C22.8281 19.9833 22.3531 19.9667 21.7197 19.95C21.0864 19.9167 20.4447 19.9 19.7947 19.9C19.1447 19.9 18.4864 19.9167 17.8197 19.95C17.1697 19.9667 16.6781 19.9833 16.3447 20V19.475C16.9281 19.475 17.3364 19.35 17.5697 19.1C17.8197 18.85 17.9447 18.375 17.9447 17.675V3.425C17.9447 2.675 17.8281 2.125 17.5947 1.775C17.3781 1.40833 16.9614 1.225 16.3447 1.225V0.7C16.8781 0.749999 17.3947 0.774999 17.8947 0.774999C18.5781 0.774999 19.2281 0.749999 19.8447 0.7C20.4614 0.633333 21.0281 0.541666 21.5447 0.424999ZM36.2834 7.075V7.575C35.9667 7.65833 35.6667 7.85833 35.3834 8.175C35.1001 8.475 34.8251 8.99167 34.5584 9.725L30.9084 20.05C30.6417 20.0333 30.3667 20.025 30.0834 20.025C29.8167 20.025 29.5501 20.0333 29.2834 20.05L24.8334 9C24.5667 8.35 24.3001 7.95833 24.0334 7.825C23.7834 7.675 23.5667 7.6 23.3834 7.6V7.075C23.9167 7.10833 24.4667 7.14167 25.0334 7.175C25.6167 7.19167 26.2501 7.2 26.9334 7.2C27.4501 7.2 27.9917 7.19167 28.5584 7.175C29.1417 7.14167 29.6834 7.10833 30.1834 7.075V7.6C29.8334 7.6 29.5167 7.61667 29.2334 7.65C28.9667 7.68333 28.7834 7.79167 28.6834 7.975C28.5834 8.15833 28.6001 8.48333 28.7334 8.95L31.6584 16.7L31.4084 17.05L33.3834 11.575C33.7001 10.675 33.8334 9.94167 33.7834 9.375C33.7334 8.79167 33.5501 8.35833 33.2334 8.075C32.9167 7.775 32.4917 7.60833 31.9584 7.575V7.075C32.2084 7.09167 32.4751 7.10833 32.7584 7.125C33.0584 7.125 33.3417 7.13333 33.6084 7.15C33.8917 7.15 34.1417 7.15 34.3584 7.15C34.6917 7.15 35.0417 7.14167 35.4084 7.125C35.7751 7.10833 36.0667 7.09167 36.2834 7.075ZM42.9875 6.725C44.4542 6.725 45.6042 7.15833 46.4375 8.025C47.2708 8.89167 47.6875 10.3083 47.6875 12.275H39.4625L39.4125 11.8H44.5375C44.5542 10.9833 44.5042 10.2333 44.3875 9.55C44.2708 8.85 44.0875 8.29167 43.8375 7.875C43.5875 7.45833 43.2542 7.25 42.8375 7.25C42.2542 7.25 41.7542 7.61667 41.3375 8.35C40.9375 9.08333 40.6958 10.3 40.6125 12L40.6875 12.15C40.6708 12.35 40.6542 12.5583 40.6375 12.775C40.6375 12.9917 40.6375 13.2167 40.6375 13.45C40.6375 14.6 40.7958 15.5333 41.1125 16.25C41.4458 16.9667 41.8625 17.4917 42.3625 17.825C42.8625 18.1417 43.3708 18.3 43.8875 18.3C44.2375 18.3 44.5958 18.25 44.9625 18.15C45.3458 18.0333 45.7292 17.8333 46.1125 17.55C46.4958 17.25 46.8542 16.8333 47.1875 16.3L47.6375 16.45C47.4375 17.0833 47.1208 17.7 46.6875 18.3C46.2542 18.9 45.7042 19.3917 45.0375 19.775C44.3708 20.1583 43.5708 20.35 42.6375 20.35C41.5042 20.35 40.5042 20.1083 39.6375 19.625C38.7708 19.1417 38.0875 18.4083 37.5875 17.425C37.1042 16.4417 36.8625 15.1917 36.8625 13.675C36.8625 12.125 37.1208 10.8333 37.6375 9.8C38.1708 8.76667 38.8958 8 39.8125 7.5C40.7458 6.98333 41.8042 6.725 42.9875 6.725ZM61.4352 0.424999V17.25C61.4352 18 61.5518 18.5583 61.7852 18.925C62.0185 19.275 62.4352 19.45 63.0352 19.45V19.975C62.5185 19.925 62.0018 19.9 61.4852 19.9C60.7852 19.9 60.1268 19.925 59.5102 19.975C58.9102 20.025 58.3518 20.1167 57.8352 20.25V3.425C57.8352 2.675 57.7185 2.125 57.4852 1.775C57.2685 1.40833 56.8518 1.225 56.2352 1.225V0.7C56.7685 0.749999 57.2852 0.774999 57.7852 0.774999C58.4685 0.774999 59.1185 0.749999 59.7352 0.7C60.3518 0.633333 60.9185 0.541666 61.4352 0.424999ZM55.0602 6.725C55.7935 6.725 56.4352 6.85 56.9852 7.1C57.5518 7.33333 57.9935 7.73333 58.3102 8.3L58.0102 8.575C57.7935 8.175 57.5018 7.89167 57.1352 7.725C56.7852 7.54167 56.4102 7.45 56.0102 7.45C55.1602 7.45 54.4852 7.95 53.9852 8.95C53.4852 9.93333 53.2435 11.4583 53.2602 13.525C53.2602 14.9417 53.3518 16.075 53.5352 16.925C53.7352 17.7583 54.0102 18.3583 54.3602 18.725C54.7268 19.0917 55.1435 19.275 55.6102 19.275C56.1768 19.275 56.6852 19.05 57.1352 18.6C57.5852 18.15 57.8268 17.5417 57.8602 16.775L57.9852 17.65C57.7352 18.5333 57.3268 19.2083 56.7602 19.675C56.2102 20.125 55.4852 20.35 54.5852 20.35C53.6018 20.35 52.7185 20.1083 51.9352 19.625C51.1685 19.1417 50.5685 18.4 50.1352 17.4C49.7018 16.3833 49.4852 15.075 49.4852 13.475C49.4852 11.9583 49.7268 10.7083 50.2102 9.725C50.6935 8.725 51.3518 7.975 52.1852 7.475C53.0352 6.975 53.9935 6.725 55.0602 6.725ZM67.3266 0.624999C68.0266 0.624999 68.5766 0.799999 68.9766 1.15C69.3932 1.48333 69.6016 1.95 69.6016 2.55C69.6016 3.15 69.3932 3.625 68.9766 3.975C68.5766 4.30833 68.0266 4.475 67.3266 4.475C66.6266 4.475 66.0682 4.30833 65.6516 3.975C65.2516 3.625 65.0516 3.15 65.0516 2.55C65.0516 1.95 65.2516 1.48333 65.6516 1.15C66.0682 0.799999 66.6266 0.624999 67.3266 0.624999ZM69.2766 6.8V17.675C69.2766 18.375 69.3932 18.85 69.6266 19.1C69.8766 19.35 70.2932 19.475 70.8766 19.475V20C70.5766 19.9833 70.1099 19.9667 69.4766 19.95C68.8432 19.9167 68.2016 19.9 67.5516 19.9C66.9016 19.9 66.2432 19.9167 65.5766 19.95C64.9099 19.9667 64.4099 19.9833 64.0766 20V19.475C64.6599 19.475 65.0682 19.35 65.3016 19.1C65.5516 18.85 65.6766 18.375 65.6766 17.675V9.8C65.6766 9.05 65.5599 8.5 65.3266 8.15C65.1099 7.78333 64.6932 7.6 64.0766 7.6V7.075C64.6099 7.125 65.1266 7.15 65.6266 7.15C66.3266 7.15 66.9766 7.125 67.5766 7.075C68.1932 7.00833 68.7599 6.91667 69.2766 6.8ZM81.2623 6.725C81.9623 6.725 82.529 6.81667 82.9623 7C83.4123 7.16667 83.7623 7.4 84.0123 7.7C84.279 8.01667 84.4706 8.425 84.5873 8.925C84.7206 9.425 84.7873 10.1 84.7873 10.95V17.675C84.7873 18.375 84.904 18.85 85.1373 19.1C85.3873 19.35 85.804 19.475 86.3873 19.475V20C86.0706 19.9833 85.5956 19.9667 84.9623 19.95C84.329 19.9167 83.704 19.9 83.0873 19.9C82.454 19.9 81.829 19.9167 81.2123 19.95C80.6123 19.9667 80.154 19.9833 79.8373 20V19.475C80.3373 19.475 80.6873 19.35 80.8873 19.1C81.0873 18.85 81.1873 18.375 81.1873 17.675V9.9C81.1873 9.48333 81.1456 9.125 81.0623 8.825C80.979 8.50833 80.829 8.26667 80.6123 8.1C80.3956 7.91667 80.0706 7.825 79.6373 7.825C79.1873 7.825 78.7706 7.95 78.3873 8.2C78.0206 8.45 77.7206 8.8 77.4873 9.25C77.2706 9.68333 77.1623 10.175 77.1623 10.725V17.675C77.1623 18.375 77.2623 18.85 77.4623 19.1C77.679 19.35 78.029 19.475 78.5123 19.475V20C78.2123 19.9833 77.7706 19.9667 77.1873 19.95C76.6206 19.9167 76.029 19.9 75.4123 19.9C74.779 19.9 74.129 19.9167 73.4623 19.95C72.7956 19.9667 72.2956 19.9833 71.9623 20V19.475C72.5456 19.475 72.954 19.35 73.1873 19.1C73.4373 18.85 73.5623 18.375 73.5623 17.675V9.8C73.5623 9.05 73.4456 8.5 73.2123 8.15C72.9956 7.78333 72.579 7.6 71.9623 7.6V7.075C72.4956 7.125 73.0123 7.15 73.5123 7.15C74.2123 7.15 74.8623 7.125 75.4623 7.075C76.079 7.00833 76.6456 6.91667 77.1623 6.8V9.05C77.579 8.2 78.1456 7.6 78.8623 7.25C79.579 6.9 80.379 6.725 81.2623 6.725ZM104.004 20V19.5C104.537 19.4667 104.937 19.4 105.204 19.3C105.47 19.2 105.645 19 105.729 18.7C105.829 18.4 105.879 17.95 105.879 17.35V4.95C105.879 4.33333 105.829 3.88333 105.729 3.6C105.645 3.3 105.462 3.1 105.179 3C104.912 2.88333 104.52 2.81667 104.004 2.8V2.3C104.454 2.31667 105.037 2.33333 105.754 2.35C106.487 2.36667 107.212 2.375 107.929 2.375C108.695 2.375 109.412 2.36667 110.079 2.35C110.762 2.33333 111.312 2.31667 111.729 2.3V2.8C111.195 2.81667 110.787 2.88333 110.504 3C110.237 3.1 110.062 3.3 109.979 3.6C109.895 3.88333 109.854 4.33333 109.854 4.95V17.35C109.854 17.95 109.895 18.4 109.979 18.7C110.079 19 110.262 19.2 110.529 19.3C110.795 19.4 111.195 19.4667 111.729 19.5V20C111.312 19.9667 110.762 19.95 110.079 19.95C109.412 19.9333 108.695 19.925 107.929 19.925C107.212 19.925 106.487 19.9333 105.754 19.95C105.037 19.95 104.454 19.9667 104.004 20ZM93.4037 20V19.5C93.937 19.4667 94.337 19.4 94.6037 19.3C94.8704 19.2 95.0454 19 95.1287 18.7C95.2287 18.4 95.2787 17.95 95.2787 17.35V4.95C95.2787 4.33333 95.2287 3.88333 95.1287 3.6C95.0454 3.3 94.862 3.1 94.5787 3C94.312 2.88333 93.9204 2.81667 93.4037 2.8V2.3C93.837 2.31667 94.3954 2.33333 95.0787 2.35C95.7787 2.36667 96.537 2.375 97.3537 2.375C98.0537 2.375 98.7454 2.36667 99.4287 2.35C100.112 2.33333 100.679 2.31667 101.129 2.3V2.8C100.595 2.81667 100.187 2.88333 99.9037 3C99.637 3.1 99.462 3.3 99.3787 3.6C99.2954 3.88333 99.2537 4.33333 99.2537 4.95V17.35C99.2537 17.95 99.2954 18.4 99.3787 18.7C99.4787 19 99.662 19.2 99.9287 19.3C100.195 19.4 100.595 19.4667 101.129 19.5V20C100.679 19.9667 100.112 19.95 99.4287 19.95C98.7454 19.9333 98.0537 19.925 97.3537 19.925C96.537 19.925 95.7787 19.9333 95.0787 19.95C94.3954 19.95 93.837 19.9667 93.4037 20ZM97.6287 11.35V10.85H107.504V11.35H97.6287ZM116.452 20.175C115.702 20.175 115.077 20.0333 114.577 19.75C114.077 19.4667 113.711 19.0917 113.477 18.625C113.244 18.1417 113.127 17.6167 113.127 17.05C113.127 16.3333 113.286 15.75 113.602 15.3C113.936 14.85 114.361 14.4833 114.877 14.2C115.394 13.9167 115.936 13.6833 116.502 13.5C117.086 13.3167 117.636 13.1417 118.152 12.975C118.686 12.7917 119.111 12.5833 119.427 12.35C119.761 12.1 119.927 11.7833 119.927 11.4V9.45C119.927 9.01667 119.852 8.63333 119.702 8.3C119.569 7.95 119.352 7.68333 119.052 7.5C118.769 7.31667 118.394 7.225 117.927 7.225C117.594 7.225 117.261 7.275 116.927 7.375C116.594 7.45833 116.319 7.60833 116.102 7.825C116.569 7.99167 116.927 8.25 117.177 8.6C117.444 8.93333 117.577 9.31667 117.577 9.75C117.577 10.3167 117.377 10.7667 116.977 11.1C116.594 11.4333 116.136 11.6 115.602 11.6C115.002 11.6 114.544 11.4167 114.227 11.05C113.927 10.6667 113.777 10.2083 113.777 9.675C113.777 9.19167 113.894 8.79167 114.127 8.475C114.377 8.15833 114.719 7.85833 115.152 7.575C115.619 7.30833 116.177 7.1 116.827 6.95C117.494 6.8 118.211 6.725 118.977 6.725C119.744 6.725 120.436 6.80833 121.052 6.975C121.669 7.125 122.186 7.40833 122.602 7.825C122.986 8.20833 123.236 8.68333 123.352 9.25C123.469 9.8 123.527 10.5 123.527 11.35V18.15C123.527 18.5667 123.569 18.8583 123.652 19.025C123.736 19.175 123.877 19.25 124.077 19.25C124.227 19.25 124.369 19.2083 124.502 19.125C124.652 19.0417 124.811 18.9417 124.977 18.825L125.227 19.25C124.877 19.55 124.469 19.7833 124.002 19.95C123.552 20.1 123.044 20.175 122.477 20.175C121.861 20.175 121.369 20.0917 121.002 19.925C120.636 19.7417 120.369 19.5 120.202 19.2C120.052 18.9 119.977 18.55 119.977 18.15C119.577 18.7833 119.094 19.2833 118.527 19.65C117.961 20 117.269 20.175 116.452 20.175ZM118.227 18.575C118.561 18.575 118.861 18.5 119.127 18.35C119.411 18.1833 119.677 17.9167 119.927 17.55V12.425C119.777 12.675 119.569 12.9 119.302 13.1C119.036 13.3 118.752 13.5083 118.452 13.725C118.152 13.925 117.861 14.15 117.577 14.4C117.311 14.65 117.094 14.9583 116.927 15.325C116.761 15.6917 116.677 16.1333 116.677 16.65C116.677 17.3 116.819 17.7833 117.102 18.1C117.386 18.4167 117.761 18.575 118.227 18.575ZM135.242 6.725C135.942 6.725 136.508 6.81667 136.942 7C137.392 7.16667 137.742 7.4 137.992 7.7C138.258 8.01667 138.45 8.425 138.567 8.925C138.7 9.425 138.767 10.1 138.767 10.95V17.675C138.767 18.375 138.883 18.85 139.117 19.1C139.367 19.35 139.783 19.475 140.367 19.475V20C140.05 19.9833 139.575 19.9667 138.942 19.95C138.308 19.9167 137.683 19.9 137.067 19.9C136.433 19.9 135.808 19.9167 135.192 19.95C134.592 19.9667 134.133 19.9833 133.817 20V19.475C134.317 19.475 134.667 19.35 134.867 19.1C135.067 18.85 135.167 18.375 135.167 17.675V9.9C135.167 9.48333 135.125 9.125 135.042 8.825C134.958 8.50833 134.808 8.26667 134.592 8.1C134.375 7.91667 134.05 7.825 133.617 7.825C133.167 7.825 132.75 7.95 132.367 8.2C132 8.45 131.7 8.8 131.467 9.25C131.25 9.68333 131.142 10.175 131.142 10.725V17.675C131.142 18.375 131.242 18.85 131.442 19.1C131.658 19.35 132.008 19.475 132.492 19.475V20C132.192 19.9833 131.75 19.9667 131.167 19.95C130.6 19.9167 130.008 19.9 129.392 19.9C128.758 19.9 128.108 19.9167 127.442 19.95C126.775 19.9667 126.275 19.9833 125.942 20V19.475C126.525 19.475 126.933 19.35 127.167 19.1C127.417 18.85 127.542 18.375 127.542 17.675V9.8C127.542 9.05 127.425 8.5 127.192 8.15C126.975 7.78333 126.558 7.6 125.942 7.6V7.075C126.475 7.125 126.992 7.15 127.492 7.15C128.192 7.15 128.842 7.125 129.442 7.075C130.058 7.00833 130.625 6.91667 131.142 6.8V9.05C131.558 8.2 132.125 7.6 132.842 7.25C133.558 6.9 134.358 6.725 135.242 6.725ZM153.598 0.424999V17.25C153.598 18 153.715 18.5583 153.948 18.925C154.182 19.275 154.598 19.45 155.198 19.45V19.975C154.682 19.925 154.165 19.9 153.648 19.9C152.948 19.9 152.29 19.925 151.673 19.975C151.073 20.025 150.515 20.1167 149.998 20.25V3.425C149.998 2.675 149.882 2.125 149.648 1.775C149.432 1.40833 149.015 1.225 148.398 1.225V0.7C148.932 0.749999 149.448 0.774999 149.948 0.774999C150.632 0.774999 151.282 0.749999 151.898 0.7C152.515 0.633333 153.082 0.541666 153.598 0.424999ZM147.223 6.725C147.957 6.725 148.598 6.85 149.148 7.1C149.715 7.33333 150.157 7.73333 150.473 8.3L150.173 8.575C149.957 8.175 149.665 7.89167 149.298 7.725C148.948 7.54167 148.573 7.45 148.173 7.45C147.323 7.45 146.648 7.95 146.148 8.95C145.648 9.93333 145.407 11.4583 145.423 13.525C145.423 14.9417 145.515 16.075 145.698 16.925C145.898 17.7583 146.173 18.3583 146.523 18.725C146.89 19.0917 147.307 19.275 147.773 19.275C148.34 19.275 148.848 19.05 149.298 18.6C149.748 18.15 149.99 17.5417 150.023 16.775L150.148 17.65C149.898 18.5333 149.49 19.2083 148.923 19.675C148.373 20.125 147.648 20.35 146.748 20.35C145.765 20.35 144.882 20.1083 144.098 19.625C143.332 19.1417 142.732 18.4 142.298 17.4C141.865 16.3833 141.648 15.075 141.648 13.475C141.648 11.9583 141.89 10.7083 142.373 9.725C142.857 8.725 143.515 7.975 144.348 7.475C145.198 6.975 146.157 6.725 147.223 6.725ZM166.74 6.95L160.49 19.625H161.79C162.44 19.625 163.048 19.4917 163.615 19.225C164.198 18.9417 164.681 18.475 165.065 17.825C165.465 17.175 165.706 16.2833 165.79 15.15H166.315C166.315 16.3667 166.323 17.3667 166.34 18.15C166.356 18.9167 166.381 19.5667 166.415 20.1C165.665 20.0667 164.881 20.0417 164.065 20.025C163.248 20.0083 162.431 20 161.615 20C160.765 20 159.89 20.0083 158.99 20.025C158.09 20.0583 157.231 20.0917 156.415 20.125L162.665 7.45H161.265C160.598 7.45 159.981 7.59167 159.415 7.875C158.865 8.14167 158.406 8.60833 158.04 9.275C157.69 9.925 157.465 10.8083 157.365 11.925H156.84C156.84 10.6917 156.831 9.69167 156.815 8.925C156.798 8.15833 156.773 7.50833 156.74 6.975C157.506 7.00833 158.298 7.03333 159.115 7.05C159.931 7.06667 160.74 7.075 161.54 7.075C162.406 7.075 163.281 7.06667 164.165 7.05C165.065 7.01667 165.923 6.98333 166.74 6.95ZM171.33 0.624999C172.03 0.624999 172.58 0.799999 172.98 1.15C173.397 1.48333 173.605 1.95 173.605 2.55C173.605 3.15 173.397 3.625 172.98 3.975C172.58 4.30833 172.03 4.475 171.33 4.475C170.63 4.475 170.072 4.30833 169.655 3.975C169.255 3.625 169.055 3.15 169.055 2.55C169.055 1.95 169.255 1.48333 169.655 1.15C170.072 0.799999 170.63 0.624999 171.33 0.624999ZM173.28 6.8V17.675C173.28 18.375 173.397 18.85 173.63 19.1C173.88 19.35 174.297 19.475 174.88 19.475V20C174.58 19.9833 174.114 19.9667 173.48 19.95C172.847 19.9167 172.205 19.9 171.555 19.9C170.905 19.9 170.247 19.9167 169.58 19.95C168.914 19.9667 168.414 19.9833 168.08 20V19.475C168.664 19.475 169.072 19.35 169.305 19.1C169.555 18.85 169.68 18.375 169.68 17.675V9.8C169.68 9.05 169.564 8.5 169.33 8.15C169.114 7.78333 168.697 7.6 168.08 7.6V7.075C168.614 7.125 169.13 7.15 169.63 7.15C170.33 7.15 170.98 7.125 171.58 7.075C172.197 7.00833 172.764 6.91667 173.28 6.8ZM182.466 6.725C183.116 6.725 183.708 6.8 184.241 6.95C184.791 7.08333 185.241 7.25833 185.591 7.475C186.025 7.74167 186.358 8.075 186.591 8.475C186.841 8.85833 186.966 9.30833 186.966 9.825C186.966 10.4083 186.783 10.8917 186.416 11.275C186.05 11.6417 185.575 11.825 184.991 11.825C184.408 11.825 183.941 11.6583 183.591 11.325C183.241 10.9917 183.066 10.5417 183.066 9.975C183.066 9.44167 183.233 9 183.566 8.65C183.9 8.28333 184.283 8.04167 184.716 7.925C184.583 7.75833 184.383 7.61667 184.116 7.5C183.85 7.38333 183.55 7.325 183.216 7.325C182.7 7.325 182.241 7.475 181.841 7.775C181.458 8.075 181.133 8.49167 180.866 9.025C180.6 9.55833 180.391 10.1833 180.241 10.9C180.108 11.6167 180.041 12.4 180.041 13.25C180.041 14.5333 180.2 15.5417 180.516 16.275C180.85 17.0083 181.266 17.525 181.766 17.825C182.283 18.125 182.816 18.275 183.366 18.275C183.683 18.275 184.025 18.225 184.391 18.125C184.775 18.025 185.158 17.825 185.541 17.525C185.941 17.225 186.308 16.8 186.641 16.25L187.066 16.4C186.883 17.0167 186.583 17.6333 186.166 18.25C185.75 18.8667 185.208 19.375 184.541 19.775C183.875 20.1583 183.058 20.35 182.091 20.35C181.008 20.35 180.025 20.1167 179.141 19.65C178.275 19.1667 177.575 18.4333 177.041 17.45C176.525 16.45 176.266 15.1667 176.266 13.6C176.266 12.1 176.533 10.8417 177.066 9.825C177.616 8.79167 178.358 8.01667 179.291 7.5C180.225 6.98333 181.283 6.725 182.466 6.725Z" fill="black"/>
</svg>
