<svg width="45" height="45" viewBox="0 0 45 45" fill="none" xmlns="http://www.w3.org/2000/svg">
<path d="M35.625 0H9.375C4.19813 0 0 4.19813 0 9.375V35.625C0 40.8019 4.19813 45 9.375 45H35.625C40.8038 45 45 40.8019 45 35.625V9.375C45 4.19813 40.8038 0 35.625 0ZM15 35.625H9.375V15H15V35.625ZM12.1875 12.6225C10.3762 12.6225 8.90625 11.1412 8.90625 9.315C8.90625 7.48875 10.3762 6.0075 12.1875 6.0075C13.9988 6.0075 15.4688 7.48875 15.4688 9.315C15.4688 11.1412 14.0006 12.6225 12.1875 12.6225ZM37.5 35.625H31.875V25.1175C31.875 18.8025 24.375 19.2806 24.375 25.1175V35.625H18.75V15H24.375V18.3094C26.9925 13.4606 37.5 13.1025 37.5 22.9519V35.625Z" fill="black"/>
</svg>
