<svg width="45" height="45" viewBox="0 0 45 45" fill="none" xmlns="http://www.w3.org/2000/svg">
<path d="M35.625 0H9.375C4.19813 0 0 4.19813 0 9.375V35.625C0 40.8019 4.19813 45 9.375 45H35.625C40.8038 45 45 40.8019 45 35.625V9.375C45 4.19813 40.8038 0 35.625 0ZM35.3644 17.3194C35.7563 25.9763 29.3006 35.6288 17.8706 35.6288C14.3944 35.6288 11.16 34.6106 8.43563 32.8631C11.7019 33.2475 14.9606 32.3419 17.5481 30.315C14.8538 30.2644 12.5813 28.485 11.7994 26.04C12.765 26.2237 13.7138 26.1694 14.5781 25.935C11.6175 25.3406 9.57563 22.6744 9.64125 19.8225C10.47 20.2837 11.4206 20.5612 12.4275 20.5931C9.68812 18.7612 8.91187 15.1425 10.5225 12.375C13.5581 16.0987 18.0938 18.5494 23.2088 18.8062C22.3106 14.9569 25.2337 11.25 29.2069 11.25C30.975 11.25 32.5763 11.9963 33.6975 13.1944C35.1 12.9188 36.4181 12.4069 37.6088 11.7019C37.1475 13.14 36.1725 14.3456 34.9031 15.1069C36.1481 14.9569 37.335 14.6269 38.4375 14.1375C37.6144 15.3675 36.57 16.4513 35.3644 17.3194Z" fill="black"/>
</svg>
