<?xml version="1.0" standalone="no"?>
<!DOCTYPE svg PUBLIC "-//W3C//DTD SVG 20010904//EN"
 "http://www.w3.org/TR/2001/REC-SVG-20010904/DTD/svg10.dtd">
<svg version="1.0" xmlns="http://www.w3.org/2000/svg"
 width="500.000000pt" height="500.000000pt" viewBox="0 0 500.000000 500.000000"
 preserveAspectRatio="xMidYMid meet">
<metadata>
Created by potrace 1.14, written by Peter Selinger 2001-2017
</metadata>
<g transform="translate(0.000000,500.000000) scale(0.100000,-0.100000)"
fill="#000000" stroke="none">
<path d="M150 3606 l0 -73 93 -5 c56 -3 104 -11 123 -21 43 -22 91 -80 103
-124 7 -25 11 -349 11 -968 0 -881 -1 -932 -19 -970 -36 -80 -93 -110 -233
-121 l-78 -7 0 -73 0 -74 939 0 938 0 6 98 c4 53 10 193 13 310 l7 212 -91 0
-90 0 -12 -72 c-33 -210 -77 -286 -195 -340 -49 -23 -57 -23 -437 -26 l-388
-3 0 526 0 525 420 0 420 0 0 85 0 85 -420 0 -420 0 0 465 0 465 338 0 c333 0
338 0 388 -24 108 -50 154 -129 175 -304 l12 -102 89 0 88 0 0 103 c0 56 -3
193 -7 305 l-6 202 -884 0 -883 0 0 -74z"/>
<path d="M2340 3605 l0 -75 68 0 c146 0 229 -54 251 -162 8 -38 11 -321 9
-969 -3 -819 -5 -918 -19 -949 -36 -78 -108 -116 -236 -127 l-73 -6 0 -74 0
-73 508 2 507 3 3 71 3 71 -78 6 c-136 11 -208 51 -246 136 -8 18 -13 162 -15
484 l-3 457 570 0 571 0 0 -449 c0 -312 -4 -458 -12 -482 -30 -91 -100 -134
-235 -145 l-83 -7 0 -73 0 -74 510 0 510 0 0 74 0 73 -77 7 c-141 11 -198 41
-234 121 -18 38 -19 89 -19 970 0 619 4 943 11 968 12 44 60 102 103 124 19
10 67 18 123 21 l93 5 0 73 0 74 -510 0 -510 0 0 -75 0 -75 73 0 c126 0 191
-32 232 -114 l25 -50 0 -398 0 -398 -570 0 -570 0 0 373 c0 217 5 391 11 417
25 112 92 160 234 169 l90 6 3 73 3 72 -511 0 -510 0 0 -75z"/>
</g>
</svg>
