<?xml version="1.0" standalone="no"?>
<svg xmlns="http://www.w3.org/2000/svg" viewBox="0 0 128 128">
  <!-- Rocket body -->
  <path d="M64 8C64 8 40 32 36 72c0 0 8-4 16-4h24c8 0 16 4 16 4C88 32 64 8 64 8z" fill="black"/>
  <!-- Window (cutout) -->
  <circle cx="64" cy="46" r="10" fill="white"/>
  <circle cx="64" cy="46" r="7" fill="black"/>
  <!-- Left fin -->
  <path d="M36 72c-4 4-16 20-18 28c8-2 22-8 26-12L36 72z" fill="black"/>
  <!-- Right fin -->
  <path d="M92 72c4 4 16 20 18 28c-8-2-22-8-26-12L92 72z" fill="black"/>
  <!-- Exhaust flame -->
  <path d="M50 68c0 0 4 28 14 48c10-20 14-48 14-48H50z" fill="black"/>
</svg>
